<svg xmlns="http://www.w3.org/2000/svg" width="255" height="27" fill="none" viewBox="0 0 255 27">
  <path fill="#000" d="M33.66 8.191h4.375v10.996h4.688V22H33.66V8.191Zm15.846 14.092c-.769 0-1.452-.071-2.051-.215a6.039 6.039 0 0 1-1.573-.595 4.709 4.709 0 0 1-1.152-.899 4.856 4.856 0 0 1-.762-1.142 5.525 5.525 0 0 1-.43-1.3 7.573 7.573 0 0 1 0-2.753c.092-.456.235-.889.43-1.299.196-.417.45-.797.762-1.143a4.422 4.422 0 0 1 1.143-.908 5.97 5.97 0 0 1 1.582-.605c.599-.15 1.282-.225 2.05-.225.769 0 1.452.075 2.051.225a5.821 5.821 0 0 1 1.573.605c.455.254.84.557 1.152.909.312.345.566.725.762 1.142.195.41.335.843.42 1.299a7.057 7.057 0 0 1 0 2.754 5.226 5.226 0 0 1-.42 1.299c-.196.41-.453.79-.772 1.142a4.535 4.535 0 0 1-1.142.899 6.04 6.04 0 0 1-1.573.595c-.599.144-1.282.215-2.05.215Zm-1.876-5.537c0 .352.033.697.098 1.035.065.332.17.632.313.899.15.26.341.472.576.634.24.157.537.235.889.235.351 0 .644-.078.878-.235.241-.162.433-.374.577-.634.15-.267.257-.567.322-.899a5.468 5.468 0 0 0 0-2.06 2.879 2.879 0 0 0-.322-.899 1.777 1.777 0 0 0-.577-.644c-.234-.163-.527-.244-.879-.244-.351 0-.647.081-.888.244a1.905 1.905 0 0 0-.576.644c-.144.26-.248.56-.313.899a5.317 5.317 0 0 0-.098 1.025Zm13.15 0c0 .475.056.889.166 1.24.118.352.28.645.489.88.208.227.459.4.752.517.293.11.622.166.986.166.469 0 .912-.062 1.328-.186.417-.13.843-.306 1.28-.527l.624 2.539a7.11 7.11 0 0 1-.927.4 8.783 8.783 0 0 1-1.026.274 9.71 9.71 0 0 1-1.074.176 9.74 9.74 0 0 1-1.055.058c-.787 0-1.53-.11-2.226-.332a5.166 5.166 0 0 1-1.836-1.015 4.846 4.846 0 0 1-1.24-1.729c-.306-.697-.46-1.52-.46-2.47 0-.951.154-1.775.46-2.471a4.846 4.846 0 0 1 1.24-1.729 5.166 5.166 0 0 1 1.836-1.016 7.309 7.309 0 0 1 2.226-.332 9.936 9.936 0 0 1 2.129.235 7.68 7.68 0 0 1 1.026.283c.332.11.641.24.928.39l-.626 2.54a7.646 7.646 0 0 0-1.279-.518 4.429 4.429 0 0 0-1.328-.195 2.62 2.62 0 0 0-.986.176 1.88 1.88 0 0 0-.752.517 2.48 2.48 0 0 0-.489.889c-.11.351-.165.765-.165 1.24Zm10.318 5.537c-.416 0-.817-.058-1.2-.176a2.937 2.937 0 0 1-1.007-.537 2.642 2.642 0 0 1-.703-.908c-.169-.371-.254-.807-.254-1.308 0-.482.079-.899.235-1.25.156-.359.364-.665.625-.918.267-.254.576-.463.928-.625.358-.17.735-.3 1.132-.391a7.584 7.584 0 0 1 1.221-.195c.423-.04.833-.059 1.23-.059.274 0 .538.006.791.02.254.013.492.029.713.048-.013-.41-.09-.748-.234-1.015a1.709 1.709 0 0 0-.566-.645 2.212 2.212 0 0 0-.82-.342 4.827 4.827 0 0 0-.987-.097c-.32 0-.648.023-.986.068-.332.04-.658.091-.977.156-.319.059-.625.124-.918.196-.286.071-.54.136-.762.195v-2.734c.32-.072.661-.14 1.026-.206.37-.071.755-.133 1.152-.185.397-.052.8-.094 1.211-.127.417-.032.827-.049 1.23-.049a11 11 0 0 1 1.475.098c.488.058.947.16 1.377.303a4.99 4.99 0 0 1 1.201.576c.371.24.687.54.948.898.266.352.475.768.624 1.25.15.482.225 1.039.225 1.67V22h-4.023v-1.748a2.847 2.847 0 0 1-.655.86c-.28.247-.595.458-.947.634a5.272 5.272 0 0 1-2.305.537Zm1.65-2.295c.183 0 .391-.049.626-.146.24-.104.465-.26.674-.469a2.53 2.53 0 0 0 .537-.791c.15-.319.224-.7.224-1.143h-.322a5.02 5.02 0 0 0-.967.098 3.826 3.826 0 0 0-.898.293 2.19 2.19 0 0 0-.674.479.932.932 0 0 0-.264.654c0 .195.033.358.098.488s.147.238.244.322a.98.98 0 0 0 .342.166c.13.033.257.05.38.05ZM81.26 7h4.219v15H81.26V7Zm11.613 1.191h5.312l2.012 10.303 2.363-10.303h3.438L102.257 22H96.31L92.873 8.191Zm22.798 13.39c-.612.2-1.273.367-1.982.497a11.68 11.68 0 0 1-2.217.205c-.84 0-1.641-.11-2.402-.332a5.675 5.675 0 0 1-2.012-1.035 5.082 5.082 0 0 1-1.387-1.777c-.338-.723-.508-1.582-.508-2.578 0-.567.088-1.09.264-1.573.176-.488.413-.93.713-1.328a5.648 5.648 0 0 1 1.064-1.055 6.98 6.98 0 0 1 2.754-1.24 6.66 6.66 0 0 1 1.455-.166c.749 0 1.41.085 1.983.254.573.163 1.048.384 1.425.664.385.28.674.606.87.977.195.37.293.765.293 1.181 0 .508-.088.941-.264 1.3-.169.357-.4.66-.693.907a3.41 3.41 0 0 1-1.006.577 7.572 7.572 0 0 1-1.201.322 10.62 10.62 0 0 1-1.299.137c-.436.02-.853.029-1.25.029h-.401a7.039 7.039 0 0 0-.371-.01c.052.371.153.684.303.938.156.253.348.462.576.625.235.156.501.27.801.341.306.066.631.098.976.098.261 0 .538-.02.831-.059.299-.039.599-.09.898-.156.306-.071.609-.15.908-.234.306-.091.599-.186.879-.283v2.773Zm-6.26-5.548c.157-.006.355-.016.596-.03.247-.012.508-.035.781-.068.274-.032.547-.078.821-.136a4.36 4.36 0 0 0 .742-.225c.221-.09.4-.205.537-.342a.677.677 0 0 0 .205-.498.93.93 0 0 0-.4-.79c-.261-.203-.625-.303-1.094-.303a2.74 2.74 0 0 0-.694.097 1.714 1.714 0 0 0-.693.352 2.1 2.1 0 0 0-.547.732c-.15.313-.234.716-.254 1.211Zm8.57-4.57h4.219c-.039.221-.078.508-.117.86a9.56 9.56 0 0 0-.059 1.073c.222-.332.498-.631.83-.898.339-.273.71-.505 1.114-.693a6.066 6.066 0 0 1 2.656-.606c.508 0 .989.078 1.445.235.456.15.856.39 1.201.722.345.332.619.765.821 1.3.201.526.302 1.168.302 1.923V22h-4.218v-6.006c0-.403-.043-.739-.127-1.006a1.603 1.603 0 0 0-.352-.634 1.25 1.25 0 0 0-.537-.332 2.275 2.275 0 0 0-1.436.039 2.584 2.584 0 0 0-.693.351 2.44 2.44 0 0 0-.537.527c-.15.202-.247.417-.293.645V22h-4.219V11.463Zm19.996 10.82a6.621 6.621 0 0 1-1.738-.224 3.785 3.785 0 0 1-1.465-.733c-.417-.351-.752-.814-1.006-1.387-.247-.579-.371-1.298-.371-2.158v-3.896h-1.943v-.635l4.599-5h1.563v3.213h3.125c-.079.39-.15.784-.215 1.182-.059.397-.091.81-.098 1.24h-2.812v3.857c0 .235.016.462.048.684.04.215.114.407.225.576.111.163.27.296.479.4.208.098.485.147.83.147.221 0 .465-.02.732-.059.267-.045.57-.127.908-.244l.235 2.53a8.18 8.18 0 0 1-1.416.36 9.227 9.227 0 0 1-1.68.147ZM154.193 22h-4.209l.088-.674c.026-.208.049-.442.069-.703.019-.26.035-.53.048-.81a4.158 4.158 0 0 1-.742 1.035 4.84 4.84 0 0 1-.976.771 4.543 4.543 0 0 1-1.143.488c-.404.118-.81.176-1.221.176a4.12 4.12 0 0 1-1.445-.254 3.18 3.18 0 0 1-1.211-.781c-.345-.364-.622-.83-.83-1.396-.202-.573-.303-1.264-.303-2.07v-6.32h4.219v5.929c0 .403.036.742.108 1.015.078.274.182.495.312.664.13.17.28.293.449.371.17.072.349.108.537.108.222 0 .443-.046.664-.137a2.2 2.2 0 0 0 .616-.371c.188-.156.348-.338.478-.547.137-.215.228-.443.274-.683v-6.348h4.218V22Zm2.457-10.537h4.014c-.013.17-.023.358-.03.566-.006.202-.009.417-.009.645v1.328c.13-.32.299-.645.507-.977.209-.338.453-.64.733-.908.286-.267.609-.485.967-.654a2.77 2.77 0 0 1 1.494-.244c.104.006.205.02.303.039.097.02.188.045.273.078a.813.813 0 0 1 .225.098l-.342 4.023a4.735 4.735 0 0 0-.928-.244 4.882 4.882 0 0 0-.85-.088c-.332 0-.625.042-.878.127a2.134 2.134 0 0 0-.635.313c-.176.13-.316.273-.42.43a1.627 1.627 0 0 0-.205.458V22h-4.219V11.463Zm19.42 10.117c-.612.202-1.273.368-1.983.498-.71.137-1.448.205-2.217.205-.84 0-1.64-.11-2.402-.332a5.683 5.683 0 0 1-2.012-1.035 5.091 5.091 0 0 1-1.386-1.777c-.339-.723-.508-1.582-.508-2.578 0-.567.088-1.09.263-1.573.176-.488.414-.93.713-1.328a5.624 5.624 0 0 1 1.065-1.055 6.973 6.973 0 0 1 2.754-1.24c.494-.11.979-.166 1.455-.166.748 0 1.409.085 1.982.254.573.163 1.048.384 1.426.664.384.28.674.606.869.977.195.37.293.765.293 1.181 0 .508-.088.941-.264 1.3-.169.357-.4.66-.693.907a3.38 3.38 0 0 1-1.006.577 7.543 7.543 0 0 1-1.201.322c-.423.072-.856.117-1.299.137-.436.02-.853.029-1.25.029h-.4a7.096 7.096 0 0 0-.371-.01c.052.371.153.684.302.938.157.253.349.462.577.625.234.156.501.27.8.341.306.066.632.098.977.098.26 0 .537-.02.83-.059.299-.039.599-.09.898-.156.306-.071.609-.15.909-.234.306-.091.599-.186.879-.283v2.773Zm-6.26-5.547c.156-.006.355-.016.595-.03.248-.012.508-.035.782-.068.273-.032.547-.078.82-.136.273-.059.521-.134.742-.225.222-.09.401-.205.537-.342a.677.677 0 0 0 .205-.498.93.93 0 0 0-.4-.79c-.26-.203-.625-.303-1.094-.303a2.73 2.73 0 0 0-.693.097 1.708 1.708 0 0 0-.693.352c-.215.176-.398.42-.547.732-.15.313-.235.716-.254 1.211Zm24.933-4.258c-.267-.117-.58-.234-.938-.351a12.47 12.47 0 0 0-1.113-.332 11.653 11.653 0 0 0-1.172-.235 6.961 6.961 0 0 0-1.123-.097c-.612 0-1.091.078-1.436.234-.345.156-.517.42-.517.791 0 .176.058.332.176.469.123.13.296.254.517.371.221.11.485.221.791.332.313.104.658.215 1.035.332l.713.225a8.52 8.52 0 0 1 1.612.664c.475.254.875.556 1.201.908.332.345.586.742.761 1.191.176.45.264.96.264 1.534a5.03 5.03 0 0 1-.322 1.835 3.481 3.481 0 0 1-.987 1.407c-.449.39-1.025.693-1.728.908-.697.215-1.536.322-2.52.322-.872 0-1.741-.071-2.607-.215a12.234 12.234 0 0 1-2.607-.752v-3.222c.839.43 1.653.745 2.441.947a9.794 9.794 0 0 0 2.344.293c.631 0 1.09-.1 1.377-.303a.964.964 0 0 0 .439-.84.893.893 0 0 0-.166-.546c-.104-.157-.277-.3-.517-.43a5.796 5.796 0 0 0-.928-.39c-.384-.137-.85-.29-1.397-.46a8.364 8.364 0 0 1-1.523-.615 4.912 4.912 0 0 1-1.201-.889 3.956 3.956 0 0 1-.801-1.22c-.189-.463-.283-.99-.283-1.582 0-.612.107-1.172.322-1.68.215-.508.544-.94.986-1.299.443-.365 1.003-.648 1.68-.85.684-.201 1.494-.302 2.432-.302a16.873 16.873 0 0 1 2.451.195c.436.065.866.15 1.289.254.423.104.823.228 1.201.371l-.146 3.027Zm6.499 4.971c0 .475.056.889.166 1.24.117.352.28.645.488.88.209.227.459.4.752.517.293.11.622.166.987.166.469 0 .911-.062 1.328-.186.417-.13.843-.306 1.279-.527l.625 2.539a7.09 7.09 0 0 1-.928.4 8.766 8.766 0 0 1-1.025.274 9.75 9.75 0 0 1-1.074.176 9.74 9.74 0 0 1-1.055.058c-.788 0-1.53-.11-2.226-.332a5.16 5.16 0 0 1-1.836-1.015 4.845 4.845 0 0 1-1.241-1.729c-.306-.697-.459-1.52-.459-2.47 0-.951.153-1.775.459-2.471a4.845 4.845 0 0 1 1.241-1.729 5.16 5.16 0 0 1 1.836-1.016 7.301 7.301 0 0 1 2.226-.332 10.018 10.018 0 0 1 2.129.235c.352.071.693.166 1.025.283.332.11.642.24.928.39l-.625 2.54a7.623 7.623 0 0 0-1.279-.518 4.428 4.428 0 0 0-1.328-.195c-.365 0-.694.058-.987.176-.293.11-.543.283-.752.517a2.48 2.48 0 0 0-.488.889c-.11.351-.166.765-.166 1.24ZM209.021 7h4.219v5.908a3.1 3.1 0 0 1 .703-.693 4.98 4.98 0 0 1 .947-.537c.345-.157.71-.274 1.094-.352a5.334 5.334 0 0 1 1.152-.127c.476 0 .922.078 1.338.235.423.15.791.394 1.104.732.312.339.556.775.732 1.309.182.527.274 1.165.274 1.914V22h-4.219v-5.566c0-.489-.042-.896-.127-1.221-.078-.326-.182-.586-.313-.781a1.094 1.094 0 0 0-.449-.42 1.07 1.07 0 0 0-.498-.127 1.57 1.57 0 0 0-.586.117 1.817 1.817 0 0 0-.527.313c-.156.136-.29.299-.401.488-.11.188-.185.397-.224.625V22h-4.219V7Zm19.263 15.283c-.768 0-1.451-.071-2.05-.215a6.055 6.055 0 0 1-1.573-.595 4.71 4.71 0 0 1-1.152-.899 4.864 4.864 0 0 1-.762-1.142 5.537 5.537 0 0 1-.429-1.3 7.547 7.547 0 0 1 0-2.753c.091-.456.234-.889.429-1.299.196-.417.449-.797.762-1.143a4.404 4.404 0 0 1 1.143-.908 5.97 5.97 0 0 1 1.582-.605c.599-.15 1.282-.225 2.05-.225.769 0 1.452.075 2.051.225a5.816 5.816 0 0 1 1.572.605c.456.254.84.557 1.153.909.312.345.566.725.761 1.142.196.41.336.843.42 1.299a6.99 6.99 0 0 1 0 2.754 5.173 5.173 0 0 1-.42 1.299c-.195.41-.452.79-.771 1.142a4.514 4.514 0 0 1-1.143.899 6.034 6.034 0 0 1-1.572.595c-.599.144-1.282.215-2.051.215Zm-1.875-5.537c0 .352.033.697.098 1.035.065.332.169.632.313.899.149.26.341.472.576.634.241.157.537.235.888.235.352 0 .645-.078.879-.235.241-.162.433-.374.576-.634a3 3 0 0 0 .323-.899 5.476 5.476 0 0 0 0-2.06 2.872 2.872 0 0 0-.323-.899 1.774 1.774 0 0 0-.576-.644c-.234-.163-.527-.244-.879-.244-.351 0-.647.081-.888.244a1.89 1.89 0 0 0-.576.644c-.144.26-.248.56-.313.899a5.325 5.325 0 0 0-.098 1.025Zm15.025 5.537c-.768 0-1.451-.071-2.05-.215a6.055 6.055 0 0 1-1.573-.595 4.71 4.71 0 0 1-1.152-.899 4.864 4.864 0 0 1-.762-1.142 5.537 5.537 0 0 1-.429-1.3 7.547 7.547 0 0 1 0-2.753c.091-.456.234-.889.429-1.299.196-.417.449-.797.762-1.143a4.404 4.404 0 0 1 1.143-.908 5.97 5.97 0 0 1 1.582-.605c.599-.15 1.282-.225 2.05-.225.769 0 1.452.075 2.051.225a5.816 5.816 0 0 1 1.572.605c.456.254.84.557 1.153.909.312.345.566.725.761 1.142.196.41.336.843.42 1.299a6.99 6.99 0 0 1 0 2.754 5.173 5.173 0 0 1-.42 1.299c-.195.41-.452.79-.771 1.142a4.532 4.532 0 0 1-1.143.899 6.034 6.034 0 0 1-1.572.595c-.599.144-1.282.215-2.051.215Zm-1.875-5.537c0 .352.033.697.098 1.035.065.332.169.632.313.899.149.26.341.472.576.634.241.157.537.235.888.235.352 0 .645-.078.879-.235.241-.162.433-.374.576-.634a3 3 0 0 0 .323-.899 5.476 5.476 0 0 0 0-2.06 2.872 2.872 0 0 0-.323-.899 1.774 1.774 0 0 0-.576-.644c-.234-.163-.527-.244-.879-.244-.351 0-.647.081-.888.244a1.89 1.89 0 0 0-.576.644c-.144.26-.248.56-.313.899a5.325 5.325 0 0 0-.098 1.025ZM249.233 7h4.219v15h-4.219V7ZM12 6 1 12l4 2.18v6L12 24l7-3.82v-6l2-1.09V20h2v-8L12 6Zm6.82 6L12 15.72 5.18 12 12 8.28 18.82 12ZM17 18.99l-5 2.73-5-2.73v-3.72L12 18l5-2.73v3.72Z"/>
</svg>
