<?xml version="1.0" standalone="no"?>
<!DOCTYPE svg PUBLIC "-//W3C//DTD SVG 20010904//EN"
 "http://www.w3.org/TR/2001/REC-SVG-20010904/DTD/svg10.dtd">
<svg version="1.0" xmlns="http://www.w3.org/2000/svg"
 width="700.000000pt" height="700.000000pt" viewBox="0 0 700.000000 700.000000"
 preserveAspectRatio="xMidYMid meet">
<metadata>
Created by potrace 1.14, written by Peter Selinger 2001-2017
</metadata>
<g transform="translate(0.000000,700.000000) scale(0.100000,-0.100000)"
fill="#000000" stroke="none">
<path d="M1082 6389 c-224 -42 -403 -212 -462 -437 -17 -63 -18 -232 -18
-2726 l0 -2659 582 582 582 582 2070 1 c2267 1 2145 -3 2269 60 159 80 273
224 316 398 11 45 13 389 13 1865 0 996 -3 1829 -7 1852 -30 192 -180 379
-362 451 -105 41 -36 40 -2548 40 -1316 -1 -2412 -5 -2435 -9z"/>
</g>
</svg>
